PathFileType	4	(X/Y/Z)	 s07c0303.trc
DataRate	CameraRate	NumFrames	NumMarkers	Units	OrigDataRate	OrigDataStartFrame	OrigNumFrames
200	200	5	48	mm	200	1251	2000
Frame#	Time	racr			lacr			c7			jug			rlel			rdr			llel			ldr			s2			lic			ric			lasi			rasi			rpsi			lpsi			rgt			lgt			rth1			rth2			rth3			rth4			rlfc			rmfc			rsh1			rsh2			rsh3			rsh4			rlmal			rcal			rtoe			rmt5			lth1			lth2			lth4			lth3			llfc			lmfc			lsh1			lsh2			lsh3			lsh4			llmal			lcal			ltoe			lmt5			SBIKE			LBIKE			RBIKE			
		X1	Y1	Z1	X2	Y2	Z2	X3	Y3	Z3	X4	Y4	Z4	X5	Y5	Z5	X6	Y6	Z6	X7	Y7	Z7	X8	Y8	Z8	X9	Y9	Z9	X10	Y10	Z10	X11	Y11	Z11	X12	Y12	Z12	X13	Y13	Z13	X14	Y14	Z14	X15	Y15	Z15	X16	Y16	Z16	X17	Y17	Z17	X18	Y18	Z18	X19	Y19	Z19	X20	Y20	Z20	X21	Y21	Z21	X22	Y22	Z22	X23	Y23	Z23	X24	Y24	Z24	X25	Y25	Z25	X26	Y26	Z26	X27	Y27	Z27	X28	Y28	Z28	X29	Y29	Z29	X30	Y30	Z30	X31	Y31	Z31	X32	Y32	Z32	X33	Y33	Z33	X34	Y34	Z34	X35	Y35	Z35	X36	Y36	Z36	X37	Y37	Z37	X38	Y38	Z38	X39	Y39	Z39	X40	Y40	Z40	X41	Y41	Z41	X42	Y42	Z42	X43	Y43	Z43	X44	Y44	Z44	X45	Y45	Z45	X46	Y46	Z46	X47	Y47	Z47	X48	Y48	Z48	
1251	6.2550	817.003665	1360.712989	-49.335549	820.955618	1432.449129	-358.417914	818.681465	1452.971028	-193.796617	747.444647	1319.555801	-233.917112	555.291893	1116.457774	45.970565	726.498502	915.156483	-54.077735	635.443475	1163.528092	-507.426447	733.879998	908.343300	-400.685338	219.398726	1292.802808	-293.953926	397.400878	1324.579968	-410.918657	377.562191	1270.732169	-127.782713	406.246811	1239.407144	-392.806570	383.836120	1226.759176	-142.672891	248.835780	1320.899979	-235.872742	270.598410	1336.981757	-340.506939	284.201166	1166.819643	-101.611851	322.628924	1173.526796	-461.127771	341.692223	1011.271604	-88.832398	378.639944	931.620585	-95.666315	373.788008	846.135548	-95.594833	412.396379	939.391257	-108.076844	397.425132	714.897270	-120.905418	383.807803	697.769835	-217.033519	332.244080	588.440115	-85.818653	317.351817	501.023401	-100.219078	266.091049	432.050233	-91.087181	332.468857	496.786302	-137.518020	203.461894	306.501177	-82.087882	131.508660	276.905198	-107.392640	414.807989	204.001761	-117.303033	331.879294	185.601853	-48.219475	378.132300	1058.519689	-453.318390	441.498464	1000.067400	-436.272712	468.318622	1019.024743	-421.286977	468.162391	915.645468	-425.952759	516.414991	749.286782	-383.406031	489.723575	742.712779	-285.061924	378.974567	688.277736	-399.909523	307.885702	640.325651	-387.274769	218.497292	628.692478	-396.789161	310.338133	641.332464	-345.363618	90.369471	587.441351	-400.988642	18.912288	618.221070	-364.434701	168.698475	371.546104	-350.587898	104.982812	422.293464	-415.403930	-256.444606	964.647448	-230.709630	-75.601632	83.653517	-436.493060	-81.933905	79.464549	-39.051906	
1252	6.2600	818.910474	1364.105567	-52.936585	819.534176	1434.500951	-363.111676	818.413338	1456.345941	-197.702452	748.535972	1321.996952	-237.095738	558.847460	1119.193299	46.540332	726.819962	915.363002	-53.892070	633.889530	1162.697445	-507.472275	733.902384	908.300208	-400.624468	219.185807	1289.199191	-289.849912	395.283985	1323.980569	-409.176788	380.430780	1267.475866	-126.580399	405.362027	1238.896771	-391.606083	386.034236	1222.503789	-141.350316	249.423487	1317.225064	-231.683417	269.253061	1334.827818	-337.410212	286.364754	1161.935845	-100.080942	322.156886	1172.606570	-460.318040	339.590978	1005.366943	-88.296586	374.349948	924.777526	-95.795773	367.250543	839.386134	-96.372455	408.198155	931.662269	-108.402615	387.675915	708.919594	-122.492559	369.117772	692.700171	-219.455073	324.040851	582.041554	-86.181849	309.565709	494.596901	-100.877538	258.605734	425.258536	-90.995989	324.044445	490.283604	-138.096490	196.453295	299.673741	-81.648059	124.549824	270.638516	-106.610442	407.157447	195.485487	-117.761561	324.429542	177.761897	-48.476211	380.915967	1059.575071	-451.658047	445.904259	1002.820079	-435.983225	472.365899	1022.511712	-421.347740	474.929494	919.028129	-426.052498	526.714687	753.499502	-384.108588	500.510082	746.708535	-285.565301	386.451194	692.366541	-398.403903	317.761242	645.592533	-387.042816	228.222790	634.554651	-396.388688	320.381286	646.485725	-345.310007	100.160223	594.478955	-400.639420	28.972605	626.295711	-364.169842	176.167121	377.816375	-350.416511	112.737173	429.091306	-414.743784	-256.434527	964.618167	-230.783475	-75.620862	83.617354	-436.502109	-81.934019	79.458151	-39.073412	
1253	6.2650	822.205653	1367.355631	-59.047326	818.375510	1436.738428	-368.251412	818.091490	1459.923629	-201.933626	751.608495	1323.993315	-241.781995	562.563354	1122.260658	46.962158	727.008304	915.404181	-53.384089	632.237801	1162.412340	-507.848881	733.919687	908.264798	-400.554877	219.037729	1285.553213	-285.803177	393.099805	1323.396736	-407.318689	383.234752	1264.448982	-125.325739	404.590903	1238.457446	-390.326679	388.227684	1218.185570	-139.947303	249.877091	1313.720598	-227.743831	267.552926	1331.915917	-333.354983	288.356326	1157.303363	-98.441115	321.791457	1171.668015	-458.776746	337.505422	999.977259	-87.553940	370.003028	918.518419	-95.600364	360.862625	833.203440	-96.614014	404.000482	924.670335	-108.579078	378.406718	703.341131	-122.928557	357.967868	687.329166	-219.641488	315.340063	576.135701	-86.179001	301.176802	488.784603	-100.945092	250.765592	419.070467	-90.705989	315.372120	484.560008	-138.361533	189.112019	293.303945	-81.265498	117.269510	265.153549	-105.824797	399.161686	187.380416	-118.430949	316.506026	170.295262	-48.862403	383.603167	1060.688659	-450.643164	450.279106	1005.581388	-436.287582	476.540847	1025.888962	-422.473161	481.422683	922.539554	-426.559340	537.465613	758.093424	-385.029012	512.043884	751.175796	-286.109377	397.256925	697.437961	-398.503615	328.402670	650.964473	-387.234389	238.859418	640.305702	-395.615866	332.194044	650.742394	-346.272917	110.859802	600.974603	-400.328771	40.198038	633.771546	-363.809077	184.088173	383.508040	-350.356605	121.443084	435.641208	-414.503072	-256.528023	964.718306	-230.490798	-75.625722	83.578145	-436.515742	-81.945589	79.422539	-39.094172	
1254	6.2700	823.749746	1371.596827	-63.095818	816.567375	1438.995419	-373.326592	817.673907	1463.661577	-206.379318	752.020456	1327.003325	-245.108089	566.355081	1125.440268	47.234924	727.652536	915.486408	-53.364862	630.548566	1161.953358	-508.043756	733.941070	908.240950	-400.470993	218.993922	1281.819383	-281.636919	390.937564	1322.938867	-405.616801	385.964200	1261.604006	-123.970989	403.941699	1238.022458	-389.018348	390.581966	1214.186246	-138.375380	250.314015	1310.314315	-223.618899	266.059727	1329.060688	-329.416279	290.233147	1152.934076	-96.891627	321.475033	1170.947337	-457.076531	335.441334	995.257507	-86.552732	365.712025	912.944700	-95.089429	354.319237	827.904890	-96.339560	399.704888	918.306227	-108.461311	369.139643	698.208949	-122.974192	346.854164	682.467278	-219.339918	306.423248	570.923006	-85.866551	292.538997	483.556615	-100.659831	242.573190	413.456128	-90.206615	306.514145	479.634649	-138.189272	181.667406	287.546730	-80.985549	109.699359	260.400039	-105.232649	390.790443	179.706207	-118.617172	307.686104	163.191343	-49.498203	386.116490	1061.718266	-450.218844	454.525463	1008.355932	-437.244081	480.584691	1029.395380	-424.400750	487.724135	926.067473	-427.443967	548.557201	763.423417	-386.322261	523.999232	756.176359	-287.100350	408.635177	702.695046	-398.915913	339.390150	656.653602	-387.685680	250.156494	645.811650	-395.686133	343.696121	655.914838	-346.635686	122.688662	607.246500	-401.105158	52.164592	640.736156	-363.487297	192.362533	388.334972	-350.320894	130.777889	441.799184	-414.634806	-256.521931	964.657378	-230.641581	-75.647215	83.571698	-436.530615	-81.952297	79.443952	-39.101779	
1255	6.2750	825.160979	1376.088742	-67.349117	814.488408	1441.085480	-378.573901	817.151388	1467.567935	-211.154724	752.086304	1330.267542	-248.597804	570.182287	1128.698154	47.438299	728.744225	915.455013	-54.165247	628.734129	1161.384528	-508.110690	733.974665	908.233334	-400.370614	219.113520	1278.105259	-277.589517	388.831966	1322.536070	-403.814997	388.671601	1259.111316	-122.453175	403.364560	1237.613646	-387.619203	392.989476	1210.603395	-136.817134	251.001978	1307.025709	-219.702414	264.992894	1326.242358	-325.718035	292.152776	1148.909773	-95.259525	321.164967	1170.362717	-455.381567	333.463050	991.334706	-85.449474	361.616250	908.260375	-94.265899	348.088598	823.673567	-95.342713	395.507240	912.886431	-108.084330	359.874485	693.697749	-122.321699	336.022424	677.986369	-218.554288	297.301030	566.496417	-84.990240	283.765161	479.073502	-99.899563	234.152949	408.814663	-89.455030	297.680987	475.202396	-137.490013	173.817024	282.631051	-80.656048	101.886382	256.456009	-104.858645	382.120572	172.724883	-118.709203	299.167511	157.141423	-49.348454	388.253316	1062.581883	-450.346508	458.545253	1011.017016	-438.645740	484.274111	1032.667220	-426.231228	494.155502	929.789295	-429.194250	559.966390	769.245000	-387.946093	536.086107	761.320177	-288.171136	420.380105	707.948338	-399.432649	351.250571	661.707381	-388.143909	261.917867	651.139392	-395.862517	355.641664	660.936953	-347.223059	134.972656	612.237469	-401.114961	65.313575	647.234502	-363.193242	200.900199	392.380910	-350.237538	140.449446	447.055971	-414.467200	-256.493171	964.645774	-230.788570	-75.625790	83.558452	-436.527201	-81.938405	79.403815	-39.117214	
